<?xml version="1.0" encoding="UTF-8" standalone="no"?>
<svg
   width="900px"
   height="900px"
   viewBox="0 0 900 900"
   version="1.1"
   xml:space="preserve"
   id="SVGRoot"
   inkscape:version="1.4.2 (2aeb623e1d, 2025-05-12)"
   sodipodi:docname="logo-3.svg"
   inkscape:export-filename="../c8df1821/logo3.png"
   inkscape:export-xdpi="54.613335"
   inkscape:export-ydpi="54.613335"
   xmlns:inkscape="http://www.inkscape.org/namespaces/inkscape"
   xmlns:sodipodi="http://sodipodi.sourceforge.net/DTD/sodipodi-0.dtd"
   xmlns:xlink="http://www.w3.org/1999/xlink"
   xmlns="http://www.w3.org/2000/svg"
   xmlns:svg="http://www.w3.org/2000/svg"><defs
   id="defs2"><rect
     x="113.55767"
     y="184.53121"
     width="414.80093"
     height="244.46443"
     id="rect1" /><rect
     x="127.75238"
     y="86.745442"
     width="627.72156"
     height="780.70897"
     id="rect5" /><rect
     x="193.99435"
     y="219.22939"
     width="334.36425"
     height="411.64655"
     id="rect4" /></defs>
<sodipodi:namedview
   pagecolor="#a9a9a9"
   bordercolor="#292929"
   borderopacity="1"
   inkscape:showpageshadow="2"
   inkscape:pageopacity="0.0"
   inkscape:pagecheckerboard="0"
   inkscape:deskcolor="#232323"
   id="namedview1"
   inkscape:zoom="0.63403908"
   inkscape:cx="497.6034"
   inkscape:cy="464.48241"
   inkscape:window-width="1920"
   inkscape:window-height="995"
   inkscape:window-x="0"
   inkscape:window-y="0"
   inkscape:window-maximized="1"
   inkscape:current-layer="SVGRoot"
   inkscape:export-bgcolor="#000000ff" />
<style
   type="text/css"
   id="style1">
g.prefab path {
  vector-effect:non-scaling-stroke;
  -inkscape-stroke:hairline;
  fill: none;
  fill-opacity: 1;
  stroke-opacity: 1;
  stroke: #00349c;
}
</style>

<circle
   style="fill:#ffffff"
   id="path1"
   cx="456.59647"
   cy="458.17365"
   r="287.83716" /><ellipse
   style="fill:#000000"
   id="path2"
   cx="309.91782"
   cy="410.06934"
   rx="19.714872"
   ry="55.201645" /><path
   style="fill:#000000"
   id="path4"
   d="m 233.77888,548.28567 c 9.65493,4.89881 19.28241,9.88433 29.28985,14.04005 9.4643,3.93017 12.61558,4.84317 22.46267,8.24316 24.42732,7.81295 50.09249,10.81011 75.63318,11.91813 6.23279,0.2704 12.47448,0.26555 18.71172,0.39832 32.63662,-0.28751 65.43321,-3.3347 97.29949,-10.61388 5.92609,-1.35369 11.76545,-3.06245 17.64817,-4.59368 21.61485,-6.49431 42.80074,-14.6864 62.57167,-25.64487 10.20079,-5.65401 16.76817,-10.1837 26.50156,-16.53294 18.24624,-12.31352 35.01709,-26.51742 50.75657,-41.8588 0,0 -12.19893,-7.46921 -12.19893,-7.46921 v 0 c -15.09441,15.72739 -31.67444,29.87468 -49.69465,42.18229 -10.02851,6.55801 -15.84726,10.61909 -26.36778,16.45769 -19.65467,10.90781 -40.67935,19.13162 -62.18968,25.55608 -5.84006,1.52984 -11.63593,3.23959 -17.52019,4.58952 -31.81405,7.29858 -64.57036,10.2864 -97.16215,10.36515 -6.25711,-0.17174 -12.51967,-0.20253 -18.77131,-0.51523 -25.67415,-1.2842 -51.44128,-4.5517 -75.94027,-12.59342 -10.03236,-3.54296 -12.94761,-4.39007 -22.57901,-8.48285 -10.25868,-4.35934 -20.10938,-9.58073 -30.02725,-14.64633 z" /><path
   style="fill:#000000"
   id="path5"
   d="m 277.40823,571.38582 c 19.66667,17.69462 37.99167,36.81563 55.93964,56.23021 14.38962,15.6585 28.74315,31.3722 42.35827,47.71416 6.13842,6.82838 12.16621,13.92849 19.19496,19.88006 5.00407,2.79542 9.85969,5.87499 15.01223,8.38628 1.02509,0.49962 7.33371,0.80858 7.81798,0.80923 7.75019,0.0105 15.10435,-1.44202 22.65222,-3.03192 19.62816,-5.42723 37.94267,-15.10253 54.1499,-27.38741 3.47624,-2.63494 6.74085,-5.53802 10.11127,-8.30703 19.58833,-16.99386 35.99937,-37.09008 52.36116,-57.08924 13.45839,-17.24252 26.83906,-34.55437 40.04045,-51.99632 6.43635,-8.41849 12.88087,-16.82898 19.40272,-25.18108 3.53077,-4.89646 7.01812,-9.84754 10.29905,-14.91748 2.1829,-2.77775 3.2427,-6.17777 5.27918,-9.03504 1.24196,-1.76223 0.65535,-0.86338 1.76122,-2.69563 0,0 -12.91598,-7.48623 -12.91598,-7.48623 v 0 c -1.04216,1.74708 -0.48089,0.87428 -1.69131,2.61356 -2.00966,2.90709 -3.17507,6.25742 -5.26643,9.1208 -3.1699,5.07874 -6.52848,10.05454 -10.01889,14.91698 -6.52129,8.34523 -12.63462,16.9865 -18.93576,25.49846 -12.87501,17.63457 -26.20379,34.94362 -39.57581,52.20091 -16.24841,19.9745 -32.71871,39.90528 -52.19898,56.87122 -3.3511,2.73955 -6.59782,5.61198 -10.0533,8.21865 -16.18317,12.20794 -34.54597,21.68548 -54.23781,26.64611 -7.63783,1.41956 -15.05571,2.7399 -22.86275,2.38046 -1.53634,-0.0707 -3.06882,-0.26059 -4.584,-0.52429 -1.06525,-0.18539 -3.99832,-1.47534 -3.13849,-0.81973 3.21367,2.4504 6.89877,4.21136 10.34816,6.31705 -2.62179,-1.91991 -4.79801,-4.18235 -7.13946,-6.43885 -4.45748,-4.29575 -8.78331,-8.71214 -12.80639,-13.42604 -13.82528,-16.4956 -28.47846,-32.2763 -43.07166,-48.08946 -17.69708,-19.1522 -35.76336,-37.993 -54.77654,-55.85018 z" /><use
   x="0"
   y="0"
   xlink:href="#path2"
   id="use5"
   transform="translate(238.15567,-6.3087597)" /><path
   style="fill:#ffffff"
   id="path12"
   d="m 848.30113,-9.9239873 c -8.1415,8.9013099 -17.91083,16.0659674 -27.52014,23.2652303 -16.32402,12.229911 -9.60246,7.307389 -26.88684,19.443859 -26.31677,18.204556 -53.66379,34.811134 -81.08104,51.2814 -15.25702,9.368481 -30.60627,18.598248 -45.60147,28.382248 -4.44415,3.03338 -9.07457,5.81264 -13.18757,9.30312 -0.55318,0.46945 -1.24852,0.83501 -1.6112,1.46338 -0.79826,1.38301 -1.19777,2.9606 -1.79665,4.44089 21.6432,13.38146 42.95373,27.31659 64.92962,40.14438 1.19548,0.69783 2.77034,0.0529 4.1489,0.17821 1.92158,0.1746 3.83016,0.47113 5.74345,0.72062 7.80696,1.01805 15.61182,2.04739 23.42174,3.04344 10.04749,1.25267 19.98069,3.29114 30.0187,4.5966 4.12529,0.52026 8.27179,0.1268 12.40492,-0.0361 4.86565,0.037 9.73968,-0.11504 14.59773,0.2187 -21.1397,-12.9351 -41.74136,-26.79367 -63.41911,-38.80529 -0.94443,-0.52331 -1.24316,1.77149 -1.96042,2.57855 -1.45865,1.64125 -2.99869,3.20976 -4.5579,4.75579 -8.4772,8.40554 -17.44765,16.15131 -26.5929,23.81307 -17.79874,14.71788 -36.17892,28.66117 -55.43977,41.40286 0,0 58.39499,36.89616 58.39499,36.89616 v 0 c 17.27778,-14.99856 35.22326,-29.19095 53.75832,-42.61047 10.02127,-7.40712 20.09348,-14.66724 30.33795,-21.75906 2.08056,-1.44029 4.19458,-2.83581 6.2133,-4.36157 1.50181,-1.13508 5.8088,-2.43743 4.33951,-3.61429 -19.41087,-15.54767 -41.02116,-28.13026 -61.53174,-42.19539 -4.60638,0.42328 -9.24757,0.18941 -13.86597,0.28733 -4.06517,-0.14721 -8.12246,-0.39672 -12.17479,-0.75515 -9.08408,-0.6849 -18.16006,-1.48008 -27.19074,-2.70607 -8.06005,-1.05446 -16.06709,-2.19759 -23.97436,-4.13563 -2.13766,-0.52393 -4.29322,-1.02036 -6.35651,-1.78645 -1.4683,-0.54517 -2.7925,-1.41929 -4.18874,-2.12893 20.27628,12.67814 40.55256,25.35628 60.82884,38.03443 -0.82659,0.82514 -1.56329,1.75143 -2.47976,2.47544 -0.40817,0.32244 0.59703,-0.85358 0.93127,-1.25215 0.49091,-0.58541 0.9904,-1.16701 1.54129,-1.69636 1.71687,-1.64975 4.00597,-3.38225 5.81372,-4.8625 1.23184,-1.00869 2.45027,-2.03363 3.67541,-3.05045 13.45839,-10.74548 27.50812,-20.69598 41.72889,-30.40672 26.11797,-17.89709 52.39835,-35.545085 78.91084,-52.85502 11.09845,-7.197841 17.4575,-11.442017 28.66526,-18.252482 11.28344,-6.856446 22.78199,-13.366754 33.93578,-20.439939 z" /><path
   style="fill:#ffffff"
   id="path13"
   d="m 171.1119,598.91257 c -15.28234,22.08734 -33.95904,41.55086 -52.63528,60.74956 -23.88001,23.62203 -49.631171,45.25167 -76.644835,65.18307 -7.677228,5.75165 -15.172815,11.75525 -22.976037,17.339 -4.218576,3.01868 -8.510699,5.81432 -12.5746691,9.04194 -25.0642779,21.05493 29.4226011,28.44849 59.5609291,45.805 0.991447,0.57097 2.180139,-0.70323 3.294027,-0.96444 1.543236,-0.36188 3.112538,-0.60187 4.668807,-0.90281 16.009226,-3.32695 32.282618,-4.95613 48.561958,-6.24461 14.14038,-1.24899 28.35566,-0.67559 42.51029,-1.37557 3.65498,-0.21117 7.31094,-0.39408 10.96835,-0.5546 0.666,-0.0292 2.56444,0.25695 1.99769,-0.0941 -63.42083,-39.27851 -50.722,-59.15097 -64.30842,-37.05479 -17.046388,21.12483 -38.010857,38.6972 -58.548291,56.28796 -12.744483,10.99628 -25.961761,21.40911 -39.284581,31.68731 0,0 56.646268,35.32141 56.646268,35.32141 v 0 c 11.971442,-11.37736 24.104627,-22.57823 36.799174,-33.15511 21.91967,-17.92132 44.38829,-35.1277 67.12458,-51.999 1.39647,-1.37983 5.76209,-2.96447 4.1894,-4.13949 -64.28347,-48.02853 -40.13837,-42.09794 -74.52536,-38.58666 -13.417185,0.95723 -26.850944,1.72011 -40.223754,3.22023 -17.008477,1.50584 -34.025296,2.87519 -51.010557,4.59959 -1.733112,0.0131 -3.470804,0.16591 -5.1993372,0.0393 -1.2051185,-0.0883 -4.5634011,-1.3549 -3.5605257,-0.68085 20.2896359,13.63698 41.3053729,26.16931 61.6501989,39.72381 0.338112,0.22527 -0.722591,0.9535 -1.01632,0.67281 -0.886469,-0.84712 3.823766,-2.76827 2.070343,-3.04049 9.482132,-10.38497 20.54649,-19.21973 30.743003,-28.86858 24.771909,-22.34206 49.131189,-45.14389 73.690809,-67.71709 8.89073,-8.28344 17.9056,-16.43369 26.74771,-24.76901 11.20556,-10.56332 21.5511,-22.13636 33.84754,-31.48116 z" /><path
   style="fill:#ffffff"
   id="path14"
   d="M -3.0084711,-5.197014 C 18.533266,8.3812686 38.655771,24.066374 59.230112,39.03984 c 22.611675,16.017243 45.015378,32.323241 67.914048,47.929669 11.54973,7.851473 23.10011,15.691071 35.07194,22.888751 4.59954,2.9803 9.30651,5.85495 13.69639,9.14364 4.20997,3.86251 8.74474,7.36266 13.01176,11.1587 -0.39116,2.90337 2.77477,-0.57304 2.24469,-0.0829 -1.70413,1.57564 -3.58912,2.68829 -5.59111,3.84866 -8.18761,4.36116 -17.40434,5.86622 -26.46576,7.25013 -22.2072,2.32535 -44.70248,2.34482 -66.981067,1.07098 -9.315018,-0.62233 -18.597968,-1.62723 -27.876857,-2.63776 -5.035397,-0.54838 -10.014513,-0.98334 -14.96377,-2.05514 0.0042,1.35196 -3.66645,-2.35907 -4.219769,-1.02179 -1.314831,3.17775 -3.040012,6.69256 -2.314309,10.05414 0.519771,2.40766 3.632849,3.3312 5.54037,4.88953 2.594817,2.11981 16.111492,12.34434 18.094477,13.85059 16.06673,12.16596 31.882699,24.65236 47.408115,37.4999 15.50736,10.75972 31.25666,21.16342 46.49812,32.30331 1.22815,0.97137 2.45631,1.94273 3.68446,2.9141 0,0 67.12612,26.96285 67.12612,26.96285 v 0 c -1.53078,-1.25011 -3.06157,-2.50022 -4.59235,-3.75032 C 211.2133,250.69878 195.7444,240.38076 180.67,229.4942 c -17.31123,-12.38922 -34.10764,-25.51574 -50.76038,-38.76914 -17.58921,-14.11911 -0.59305,-0.3821 -15.07388,-12.31539 -1.30051,-1.07172 -2.31852,-3.63101 -3.93915,-3.16896 -2.70972,0.77256 -4.2155,3.78121 -5.96249,5.99198 -0.66904,0.84665 5.51804,-0.89349 3.23044,0.21 13.05062,0.26355 26.09265,0.82561 39.1395,1.22234 23.25598,0.49112 46.57395,0.81452 69.80561,-0.47413 5.5084,-0.5938 8.83759,-0.77287 14.09348,-1.94415 5.67486,-1.26465 11.02195,-3.65729 16.13282,-6.37031 4.05777,-2.51007 8.26597,-5.21463 10.24099,-9.80933 0.56183,-1.30704 1.16966,-2.68757 1.15021,-4.11011 -0.01,-0.70448 -0.81992,-1.14597 -1.22988,-1.71896 -0.5157,-0.49003 -3.77752,-3.5981 -4.15639,-3.91938 -2.85918,-2.42456 -6.1805,-4.36216 -8.5622,-7.31681 -4.49158,-4.5342 -9.77424,-7.56776 -15.03871,-11.13805 -3.49129,-2.03957 -7.07302,-3.92205 -10.55757,-5.97311 -9.46959,-5.57396 -18.35957,-12.05205 -27.72424,-17.7903 -6.14215,-3.93884 -14.32329,-9.13989 -20.27693,-13.159692 C 153.89228,87.267475 137.10501,74.858415 119.88556,63.084072 108.94076,55.004192 105.07779,52.257711 94.53183,44.077921 84.850314,36.56862 75.462183,28.657895 65.447078,21.587714 Z" /><path
   style="fill:#ffffff"
   id="path15"
   d="m 694.70248,596.35584 c 17.19793,20.98722 33.8521,42.43328 50.43695,63.91018 12.8499,17.29717 26.72705,33.7838 40.06392,50.69621 2.58778,3.42671 3.59864,4.65096 5.82844,7.95546 0.44491,0.65934 0.83321,1.3556 1.2748,2.01718 0.15904,0.23827 0.74772,0.85297 0.61742,0.59784 -0.10355,-0.20274 -0.27834,-0.36032 -0.41751,-0.54049 -12.48947,1.39504 -25.23096,-0.21829 -37.66566,-1.51264 -13.31792,-1.55145 -26.37357,-4.63242 -39.60139,-6.74478 -1.80883,-0.28885 -4.28156,-2.27721 -5.4292,-0.84954 -2.27723,2.8329 -1.62155,7.08624 -2.43233,10.62936 2.46815,3.60065 4.69328,7.38055 7.40445,10.80195 5.72088,7.21957 18.34834,20.23685 24.41962,26.63814 10.89429,11.48646 21.75087,22.99681 32.48997,34.62842 9.32587,9.74176 18.45348,19.68681 28.11578,29.10002 4.16068,3.82632 7.92988,8.07915 11.21488,12.6776 2.44231,3.41154 4.97922,6.75108 7.52131,10.08834 0,0 67.78596,28.91654 67.78596,28.91654 v 0 c -2.57073,-3.00006 -5.23801,-5.97561 -7.23712,-9.40176 -3.5498,-5.17979 -7.29022,-10.25733 -11.85014,-14.61926 -11.31736,-10.15129 -22.41448,-20.53887 -33.47833,-30.96738 -21.52635,-20.93671 -43.36411,-42.00988 -60.80111,-66.57728 -1.63455,0.46453 -4.34032,-0.20959 -4.90365,1.39359 -0.47953,1.36466 2.89143,0.11439 4.33329,0.22956 2.11241,0.16874 4.22222,0.37496 6.32692,0.62195 10.34071,1.21355 20.60449,3.00394 30.9395,4.26193 7.00253,0.92779 15.85597,2.17379 22.9692,2.85093 7.69574,0.73259 15.92339,1.70703 22.83505,-2.47869 2.45165,-2.71067 4.88625,-5.41008 4.00666,-9.4446 -1.12954,-5.18102 -6.40166,-8.56619 -9.23854,-12.62811 -14.96515,-17.2311 -29.92895,-34.46585 -44.2311,-52.25798 -15.6226,-19.73989 -31.21901,-39.61319 -44.40589,-61.09914 z" /></svg>
